<svg xmlns="http://www.w3.org/2000/svg" width="900" height="900" viewBox="0 0 900 900"><rect width="100%" height="100%" fill="#FBF6ED"/><g><circle cx="450.0" cy="213.5" r="99.00000000000001" fill="none" stroke="#C8A97A" stroke-width="4.4"/><g stroke="#8B6E4E" stroke-width="4.4" fill="none"><rect x="408.2" y="160.7" width="83.60000000000001" height="118.80000000000001" rx="1"/><line x1="408.2" y1="184.89999999999998" x2="491.8" y2="184.89999999999998"/><line x1="408.2" y1="255.3" x2="491.8" y2="255.3"/><line x1="421.4" y1="189.29999999999998" x2="421.4" y2="250.89999999999998"/><line x1="435.7" y1="189.29999999999998" x2="435.7" y2="250.89999999999998"/><line x1="450.0" y1="189.29999999999998" x2="450.0" y2="250.89999999999998"/><line x1="464.3" y1="189.29999999999998" x2="464.3" y2="250.89999999999998"/><line x1="478.6" y1="189.29999999999998" x2="478.6" y2="250.89999999999998"/><ellipse cx="450.0" cy="238.8" rx="31" ry="8" /></g><path d="M 186.0 285.0 C 285.0 202.5, 329.0 345.5, 450.0 285.0 C 571.0 224.5, 670.0 345.5, 747.0 279.5" fill="none" stroke="#7A1F27" stroke-width="5.4" stroke-linecap="round"/><path d="M 314.7 279.5 C 293.8 232.2, 298.2 192.6, 315.8 158.5" fill="none" stroke="#5E6B43" stroke-width="4.4" stroke-linecap="round"/><ellipse cx="296.0" cy="183.8" rx="11" ry="22" transform="rotate(-35 296.0 183.8)" fill="#5E6B43"/><ellipse cx="275.1" cy="216.8" rx="11" ry="22" transform="rotate(-15 275.1 216.8)" fill="#5E6B43"/><ellipse cx="313.6" cy="227.8" rx="11" ry="22" transform="rotate(30 313.6 227.8)" fill="#5E6B43"/><ellipse cx="285.0" cy="249.8" rx="11" ry="22" transform="rotate(-30 285.0 249.8)" fill="#5E6B43"/><ellipse cx="324.6" cy="263.0" rx="11" ry="22" transform="rotate(25 324.6 263.0)" fill="#5E6B43"/><text x="450.0" y="422.5" text-anchor="middle" font-family="Noto Serif Devanagari, Mukta, serif" font-size="145" fill="#7A1F27">स्मृजा</text><text x="450.0" y="521.5" text-anchor="middle" font-family="Cinzel, Lora, Georgia, serif" font-size="46" letter-spacing="12" fill="#7A1F27">SMRIJA</text><text x="450.0" y="587.5" text-anchor="middle" font-family="Noto Serif Devanagari, Mukta, serif" font-size="44" fill="#5E6B43">वीण आठवणींची.</text><line x1="203.6" y1="573.2" x2="282.8" y2="573.2" stroke="#C8A97A" stroke-width="3"/><line x1="617.2" y1="573.2" x2="696.4" y2="573.2" stroke="#C8A97A" stroke-width="3"/><circle cx="450.0" cy="546.8" r="4" fill="#C8A97A"/></g></svg>